#define bm_battery_width 18
#define bm_battery_height 12
static unsigned char bm_battery_bits[] = {
   0x80, 0x07, 0x00, 0xf0, 0x3f, 0x00, 0x10, 0x20, 0x00, 0x10, 0x20, 0x00,
   0x10, 0x20, 0x00, 0xd0, 0x2f, 0x00, 0xd0, 0x2f, 0x00, 0x10, 0x20, 0x00,
   0xd0, 0x2f, 0x00, 0xd0, 0x2f, 0x00, 0x10, 0x20, 0x00, 0xf0, 0x3f, 0x00};
