#define bm_downhill_width 18
#define bm_downhill_height 12
static unsigned char bm_downhill_bits[] = {
   0x38, 0x00, 0x00, 0xe0, 0x00, 0x00, 0x80, 0x03, 0x00, 0x00, 0x0e, 0x02,
   0x03, 0x38, 0x03, 0x0f, 0xe0, 0x03, 0x7f, 0xc0, 0x03, 0xff, 0xe1, 0x03,
   0xff, 0x07, 0x00, 0xff, 0x3f, 0x00, 0xff, 0xff, 0x00, 0xff, 0xff, 0x03};
