#define bm_uphill_width 18
#define bm_uphill_height 12
static unsigned char bm_uphill_bits[] = {
   0xc0, 0x1f, 0x00, 0x80, 0x1f, 0x00, 0x00, 0x1f, 0x00, 0xc0, 0x1b, 0x00,
   0xf0, 0x10, 0x03, 0x3c, 0xc0, 0x03, 0x0f, 0xf8, 0x03, 0x03, 0xfe, 0x03,
   0x80, 0xff, 0x03, 0xf0, 0xff, 0x03, 0xfc, 0xff, 0x03, 0xff, 0xff, 0x03};
