#define bm_elevation_width 18
#define bm_elevation_height 12
static unsigned char bm_elevation_bits[] = {
   0x00, 0x00, 0x00, 0x00, 0x00, 0x00, 0x10, 0x00, 0x00, 0x38, 0x00, 0x00,
   0x7c, 0x00, 0x00, 0xfe, 0x08, 0x00, 0xff, 0x1d, 0x00, 0xff, 0x3e, 0x00,
   0x7f, 0x7f, 0x00, 0x7f, 0xff, 0x00, 0xbf, 0xff, 0x01, 0xdf, 0xff, 0x03};
