#define bm_elevation_uphill_width 18
#define bm_elevation_uphill_height 12
static unsigned char bm_elevation_uphill_bits[] = {
   0x00, 0xc0, 0x00, 0x00, 0xe0, 0x01, 0x04, 0xf0, 0x03, 0x0e, 0xc0, 0x00,
   0x1f, 0xc0, 0x00, 0x3f, 0xc2, 0x00, 0x7f, 0xc7, 0x00, 0xbf, 0xcf, 0x00,
   0xdf, 0xdf, 0x00, 0xdf, 0xdf, 0x00, 0xef, 0x3f, 0x00, 0xf7, 0xff, 0x00};
