#define _width 47
#define _height 31
static unsigned char _bits[] = {
   0x00, 0x00, 0x00, 0x00, 0x00, 0x00, 0x02, 0x04, 0x80, 0x10, 0x00, 0x00,
   0x02, 0x04, 0xe0, 0x13, 0x00, 0x00, 0x02, 0x04, 0xf0, 0x17, 0x00, 0x00,
   0x02, 0x04, 0xf8, 0x1f, 0x00, 0x00, 0x02, 0x04, 0xfe, 0x3f, 0x00, 0x00,
   0x02, 0x00, 0xff, 0x7f, 0x00, 0x00, 0x02, 0x80, 0xff, 0xff, 0x00, 0x00,
   0x02, 0xe0, 0xff, 0xff, 0x03, 0x00, 0x02, 0xf4, 0xff, 0xff, 0x07, 0x00,
   0x02, 0x04, 0xe8, 0x13, 0x00, 0x00, 0x02, 0x04, 0xe8, 0x13, 0x00, 0x00,
   0x02, 0x04, 0xe8, 0x13, 0x00, 0x00, 0x02, 0x04, 0xe8, 0x17, 0x00, 0x00,
   0x02, 0x00, 0xc0, 0x1f, 0x00, 0x00, 0x02, 0x00, 0xc0, 0x1f, 0x00, 0x00,
   0x02, 0x00, 0x00, 0x7f, 0x00, 0x00, 0x02, 0x04, 0x08, 0xfe, 0x00, 0x00,
   0x02, 0x04, 0x08, 0xf8, 0x03, 0x00, 0x02, 0x04, 0x08, 0xf0, 0x07, 0x00,
   0x02, 0x04, 0x08, 0xd0, 0x1f, 0x00, 0x02, 0x04, 0x08, 0x10, 0x3f, 0x00,
   0x02, 0x00, 0x00, 0x10, 0xfe, 0x00, 0x02, 0x00, 0x00, 0x10, 0xf8, 0x01,
   0x02, 0x00, 0x00, 0x10, 0xf0, 0x07, 0x02, 0x04, 0x08, 0x10, 0xc0, 0x0f,
   0x02, 0x04, 0x08, 0x10, 0x80, 0x3f, 0x02, 0x04, 0x08, 0x10, 0x00, 0x7e,
   0x02, 0x04, 0x08, 0x10, 0x00, 0x78, 0x02, 0x04, 0x08, 0x10, 0x00, 0x70,
   0x00, 0x00, 0x00, 0x00, 0x00, 0x40};
