#define _width 47
#define _height 31
static unsigned char _bits[] = {
   0x00, 0x00, 0x00, 0x00, 0x00, 0x00, 0x00, 0x00, 0x00, 0x00, 0x04, 0x00,
   0x00, 0x00, 0x00, 0x00, 0x1c, 0x00, 0x00, 0x00, 0x00, 0x00, 0x7c, 0x00,
   0x00, 0x00, 0x00, 0x00, 0xfc, 0x01, 0x00, 0x00, 0x00, 0x00, 0xfc, 0x07,
   0x00, 0x00, 0x00, 0xfc, 0xff, 0x1f, 0x00, 0x00, 0x80, 0xff, 0xff, 0x3f,
   0x00, 0x00, 0xc0, 0xff, 0xff, 0x1f, 0x00, 0x00, 0xc0, 0x07, 0xfc, 0x07,
   0x00, 0x00, 0xe0, 0x03, 0xfc, 0x01, 0x00, 0x00, 0xe0, 0x03, 0x7c, 0x00,
   0x00, 0x00, 0xe0, 0x03, 0x1c, 0x00, 0x00, 0x00, 0xe0, 0x03, 0x04, 0x00,
   0x00, 0x00, 0xe0, 0x03, 0x00, 0x00, 0x00, 0x00, 0xe0, 0x03, 0x00, 0x00,
   0x00, 0x00, 0xe0, 0x03, 0x00, 0x00, 0x00, 0x00, 0xe0, 0x03, 0x00, 0x00,
   0x00, 0x00, 0xe0, 0x03, 0x00, 0x00, 0x00, 0x00, 0xe0, 0x03, 0x00, 0x00,
   0x00, 0x00, 0xe0, 0x03, 0x00, 0x00, 0x00, 0x00, 0xe0, 0x03, 0x00, 0x00,
   0x00, 0x00, 0xe0, 0x03, 0x00, 0x00, 0x00, 0x00, 0xe0, 0x03, 0x00, 0x00,
   0x00, 0x00, 0xe0, 0x03, 0x00, 0x00, 0x00, 0x00, 0xe0, 0x03, 0x00, 0x00,
   0x00, 0x00, 0xe0, 0x03, 0x00, 0x00, 0x00, 0x00, 0xe0, 0x03, 0x00, 0x00,
   0x00, 0x00, 0xe0, 0x03, 0x00, 0x00, 0x00, 0x00, 0xe0, 0x03, 0x00, 0x00,
   0x00, 0x00, 0x00, 0x00, 0x00, 0x00};
