#define _width 47
#define _height 31
static unsigned char _bits[] = {
   0x00, 0x00, 0x00, 0x00, 0x00, 0x00, 0x02, 0x04, 0x08, 0xd0, 0xff, 0x3f,
   0x02, 0x04, 0x08, 0x90, 0xff, 0x3f, 0x02, 0x04, 0x08, 0x10, 0xfe, 0x3f,
   0x02, 0x04, 0x08, 0x10, 0xfc, 0x3f, 0x02, 0x04, 0x08, 0x10, 0xf8, 0x3f,
   0x02, 0x00, 0x00, 0x10, 0xfe, 0x3f, 0x02, 0x00, 0x00, 0x80, 0xff, 0x3f,
   0x02, 0x00, 0x00, 0xe0, 0x3f, 0x3f, 0x02, 0x04, 0x08, 0xf8, 0x0f, 0x3c,
   0x02, 0x04, 0x08, 0xfe, 0x03, 0x38, 0x02, 0x04, 0x88, 0xff, 0x00, 0x20,
   0x02, 0x04, 0xc8, 0x3f, 0x00, 0x00, 0x02, 0x04, 0xe8, 0x0f, 0x00, 0x00,
   0x02, 0x00, 0xe0, 0x07, 0x00, 0x00, 0x02, 0x00, 0xe0, 0x13, 0x00, 0x00,
   0x02, 0x00, 0xe0, 0x13, 0x00, 0x00, 0x02, 0x04, 0xe8, 0x13, 0x00, 0x00,
   0x02, 0x04, 0xe8, 0x13, 0x00, 0x00, 0x02, 0x04, 0xe8, 0x13, 0x00, 0x00,
   0x02, 0x04, 0xe8, 0x13, 0x00, 0x00, 0x02, 0x04, 0xe8, 0x13, 0x00, 0x00,
   0x02, 0x00, 0xe0, 0x13, 0x00, 0x00, 0x02, 0x00, 0xe0, 0x13, 0x00, 0x00,
   0x02, 0x00, 0xe0, 0x13, 0x00, 0x00, 0x02, 0x04, 0xe8, 0x13, 0x00, 0x00,
   0x02, 0x04, 0xe8, 0x13, 0x00, 0x00, 0x02, 0x04, 0xe8, 0x13, 0x00, 0x00,
   0x02, 0x04, 0xe8, 0x13, 0x00, 0x00, 0x02, 0x04, 0xe8, 0x13, 0x00, 0x00,
   0x00, 0x00, 0x00, 0x00, 0x00, 0x00};
