#define _width 47
#define _height 31
static unsigned char _bits[] = {
   0x00, 0x00, 0x00, 0x00, 0x00, 0x00, 0x00, 0x00, 0x00, 0x00, 0x00, 0x00,
   0x00, 0x00, 0x00, 0x00, 0x00, 0x00, 0x00, 0x00, 0x00, 0x00, 0x00, 0x00,
   0x00, 0x00, 0xc0, 0x07, 0x00, 0x00, 0x00, 0x00, 0xe0, 0x0f, 0x00, 0x00,
   0x00, 0x00, 0xe0, 0x3f, 0x00, 0x00, 0x00, 0x00, 0xe0, 0xff, 0x00, 0x20,
   0x00, 0x00, 0xe0, 0xff, 0x03, 0x38, 0x00, 0x00, 0xe0, 0xfb, 0x0f, 0x3c,
   0x00, 0x00, 0xe0, 0xe3, 0x3f, 0x3f, 0x00, 0x00, 0xe0, 0x83, 0xff, 0x3f,
   0x00, 0x00, 0xe0, 0x03, 0xfe, 0x3f, 0x00, 0x00, 0xe0, 0x03, 0xf8, 0x3f,
   0x00, 0x00, 0xe0, 0x03, 0xfc, 0x3f, 0x00, 0x00, 0xe0, 0x03, 0xfe, 0x3f,
   0x00, 0x00, 0xe0, 0x83, 0xff, 0x3f, 0x00, 0x00, 0xe0, 0xc3, 0xff, 0x3f,
   0x00, 0x00, 0xe0, 0x03, 0x00, 0x00, 0x00, 0x00, 0xe0, 0x03, 0x00, 0x00,
   0x00, 0x00, 0xe0, 0x03, 0x00, 0x00, 0x00, 0x00, 0xe0, 0x03, 0x00, 0x00,
   0x00, 0x00, 0xe0, 0x03, 0x00, 0x00, 0x00, 0x00, 0xe0, 0x03, 0x00, 0x00,
   0x00, 0x00, 0xe0, 0x03, 0x00, 0x00, 0x00, 0x00, 0xe0, 0x03, 0x00, 0x00,
   0x00, 0x00, 0xe0, 0x03, 0x00, 0x00, 0x00, 0x00, 0xe0, 0x03, 0x00, 0x00,
   0x00, 0x00, 0xe0, 0x03, 0x00, 0x00, 0x00, 0x00, 0xe0, 0x03, 0x00, 0x00,
   0x00, 0x00, 0x00, 0x00, 0x00, 0x00};
