#define _width 47
#define _height 31
static unsigned char _bits[] = {
   0x00, 0x00, 0x00, 0x00, 0x00, 0x00, 0xfe, 0xff, 0x05, 0x08, 0x10, 0x20,
   0xfe, 0xff, 0x04, 0x08, 0x10, 0x20, 0xfe, 0x3f, 0x04, 0x08, 0x10, 0x20,
   0xfe, 0x1f, 0x04, 0x08, 0x10, 0x20, 0xfe, 0x0f, 0x04, 0x08, 0x10, 0x20,
   0xfe, 0x3f, 0x04, 0x00, 0x00, 0x20, 0xfe, 0xff, 0x00, 0x00, 0x00, 0x20,
   0x7e, 0xfe, 0x03, 0x00, 0x00, 0x20, 0x1e, 0xf8, 0x0f, 0x08, 0x10, 0x20,
   0x0e, 0xe0, 0x3f, 0x08, 0x10, 0x20, 0x02, 0x80, 0xff, 0x08, 0x10, 0x20,
   0x00, 0x00, 0xfe, 0x09, 0x10, 0x20, 0x00, 0x00, 0xf8, 0x0b, 0x10, 0x20,
   0x00, 0x00, 0xf0, 0x03, 0x00, 0x20, 0x00, 0x00, 0xe4, 0x03, 0x00, 0x20,
   0x00, 0x00, 0xe4, 0x03, 0x00, 0x20, 0x00, 0x00, 0xe4, 0x0b, 0x10, 0x20,
   0x00, 0x00, 0xe4, 0x0b, 0x10, 0x20, 0x00, 0x00, 0xe4, 0x0b, 0x10, 0x20,
   0x00, 0x00, 0xe4, 0x0b, 0x10, 0x20, 0x00, 0x00, 0xe4, 0x0b, 0x10, 0x20,
   0x00, 0x00, 0xe4, 0x03, 0x00, 0x20, 0x00, 0x00, 0xe4, 0x03, 0x00, 0x20,
   0x00, 0x00, 0xe4, 0x03, 0x00, 0x20, 0x00, 0x00, 0xe4, 0x0b, 0x10, 0x20,
   0x00, 0x00, 0xe4, 0x0b, 0x10, 0x20, 0x00, 0x00, 0xe4, 0x0b, 0x10, 0x20,
   0x00, 0x00, 0xe4, 0x0b, 0x10, 0x20, 0x00, 0x00, 0xe4, 0x0b, 0x10, 0x20,
   0x00, 0x00, 0x00, 0x00, 0x00, 0x00};
