#define pauseststop_width 18
#define pauseststop_height 12
static unsigned char pauseststop_bits[] = {
   0x00, 0x00, 0x00, 0x00, 0x00, 0x00, 0x70, 0x38, 0x00, 0x70, 0x38, 0x00,
   0x70, 0x38, 0x00, 0x70, 0x38, 0x00, 0x70, 0x38, 0x00, 0x70, 0x38, 0x00,
   0x70, 0x38, 0x00, 0x70, 0x38, 0x00, 0x00, 0x00, 0x00, 0x00, 0x00, 0x00};
