#define ststop_width 18
#define ststop_height 12
static unsigned char ststop_bits[] = {
   0x00, 0x00, 0x00, 0x00, 0x00, 0x00, 0xf8, 0x7f, 0x00, 0xf8, 0x7f, 0x00,
   0xf8, 0x7f, 0x00, 0xf8, 0x7f, 0x00, 0xf8, 0x7f, 0x00, 0xf8, 0x7f, 0x00,
   0xf8, 0x7f, 0x00, 0xf8, 0x7f, 0x00, 0x00, 0x00, 0x00, 0x00, 0x00, 0x00};
